HIERARCHY
ROOT pelvis
{
  OFFSET 0 100 0
  CHANNELS 6 Xposition Yposition Zposition Zrotation Xrotation Yrotation
  JOINT pelvis_right_femur
  {
    OFFSET -10.78128 -3.44521 -0.5502486
    CHANNELS 3 Zrotation Xrotation Yrotation
    JOINT right_femur_tibia
    {
      OFFSET -0.8047443 -44.0398 -0.1307829
      CHANNELS 3 Zrotation Xrotation Yrotation
      JOINT right_tibia_foot
      {
        OFFSET 3.006224 -47.83518 -5
        CHANNELS 3 Zrotation Xrotation Yrotation
        End Site
        {
          OFFSET 0 -5 15
        }
      }
    }
  }
  JOINT pelvis_left_femur
  {
    OFFSET 10.78128 -3.44521 -0.5502486
    CHANNELS 3 Zrotation Xrotation Yrotation
    JOINT left_femur_tibia
    {
      OFFSET 0.8047443 -44.0398 -0.1307829
      CHANNELS 3 Zrotation Xrotation Yrotation
      JOINT left_tibia_foot
      {
        OFFSET -4.370144 -48.10324 -4.275266
        CHANNELS 3 Zrotation Xrotation Yrotation
        End Site
        {
          OFFSET 0 -5 15
        }
      }
    }
  }
  JOINT pelvis_spine1
  {
    OFFSET 0 6.468898 -3.129235
    CHANNELS 3 Zrotation Xrotation Yrotation
    JOINT spine1
    {
      OFFSET 0 23.15396 4.99043
      CHANNELS 3 Zrotation Xrotation Yrotation
      JOINT spine2
      {
        OFFSET 0 20.79997 -5.064912
        CHANNELS 3 Zrotation Xrotation Yrotation
        JOINT neck
        {
          OFFSET 0 14.38658 9.616178
          CHANNELS 3 Zrotation Xrotation Yrotation
          End Site
          {
            OFFSET 0 20 0
          }
        }
      }
      JOINT right_manubrium
      {
        OFFSET -5.722621 16.35077 3.967754
        CHANNELS 3 Zrotation Xrotation Yrotation
        JOINT right_clavicle
        {
          OFFSET -13.16364 1.694482 -4.693211
          CHANNELS 3 Zrotation Xrotation Yrotation
          JOINT right_humerus
          {
            OFFSET -28.5034 -0.3100689 -2.792744
            CHANNELS 3 Zrotation Xrotation Yrotation
            JOINT right_radius
            {
              OFFSET -25.15693 0.02248979 -1.271978
              CHANNELS 3 Zrotation Xrotation Yrotation
              End Site
              {
                OFFSET -15 0 0
              }
            }
          }
        }
      }
      JOINT left_manubrium
      {
        OFFSET 5.722621 16.35077 3.967754
        CHANNELS 3 Zrotation Xrotation Yrotation
        JOINT left_clavicle
        {
          OFFSET 13.16364 1.694482 -4.693211
          CHANNELS 3 Zrotation Xrotation Yrotation
          JOINT left_humerus
          {
            OFFSET 29.39168 -1.063119 -2.237045
            CHANNELS 3 Zrotation Xrotation Yrotation
            JOINT left_radius
            {
              OFFSET 24.59957 -0.9528479 0.9047498
              CHANNELS 3 Zrotation Xrotation Yrotation
              End Site
              {
                OFFSET 15 -0 -0
              }
            }
          }
        }
      }
    }
  }
}
MOTION
Frames: 19
Frame Time: 0.0416666666667
653.2899 104.2463 2700.603 3.871297 -6.281006 22.41396 -0.07855683 -7.382556 1.690016 -0 45.73303 -0 -5.27447 3.061004 -3.724082 -5.986033 4.500772 -11.44936 -0 11.66172 -0 -0.6422472 -15.30733 18.4493 0.1406709 -1.566027 6.021744 1.085729 14.87904 -7.25528 1.338843 21.25663 3.408155 0.5622195 -21.18275 5.957114 -2.031672 -25.43875 13.28117 91.08044 21.95499 -13.9808 -0 0 19.3368 -21.70297 12.7816 10.88328 3.359203 -22.19836 -4.504849 -90.01415 11.7067 25.90502 0 0 -11.20715 11.21754 15.16142 -2.974212
655.3713 104.5365 2704.546 3.527971 -5.670598 23.30651 0.2068028 -12.4928 2.2597 -0 42.50123 -0 -4.468067 -0.5848972 -4.840267 -5.772564 7.751961 -12.46069 -0 9.998932 -0 -0.6888923 -16.93607 18.07914 0.2366925 -1.391872 5.656799 1.407274 14.90163 -7.786451 1.277289 21.43631 3.689932 0.690718 -21.40149 6.130062 -2.235346 -24.53589 13.55094 92.25561 21.97249 -15.95711 -0 0 17.40805 -21.15065 12.2468 9.491775 3.587742 -22.82398 -4.654133 -89.07118 11.13578 23.8004 0 0 -13.01199 12.41052 15.40999 -4.958222
657.2759 104.3896 2708.198 2.925791 -4.537406 23.97506 0.652411 -17.70514 2.968045 -0 36.92237 -0 -3.738973 -4.722506 -5.688648 -5.606458 10.70824 -13.6915 -0 8.764878 -0 -0.341046 -18.61729 17.94219 0.3164544 -1.273662 5.361667 1.72357 14.78712 -8.269613 1.206421 21.54683 3.940419 0.7688231 -21.62677 6.297292 -2.469406 -23.76933 13.75424 93.2204 22.02658 -17.64212 -0 0 15.84246 -20.61206 11.71924 8.223483 3.838089 -23.31696 -4.679873 -88.20702 10.53214 21.9113 0 0 -14.83132 13.48195 15.53185 -6.838563
659.0772 103.8655 2711.717 2.100798 -3.16772 24.4001 1.476113 -22.74854 3.467161 -0 29.97294 -0 -3.417786 -7.077689 -5.805031 -5.511143 12.88411 -14.49868 -0 8.467303 -0 0.5554296 -20.01027 17.96232 0.3530807 -1.175488 5.127187 2.01583 14.55054 -8.674087 1.128521 21.59312 4.180146 0.8228711 -21.86342 6.46608 -2.668974 -23.12355 13.89091 93.93041 22.19853 -18.96978 -0 0 14.63443 -20.08056 11.2067 7.137794 4.10168 -23.64504 -4.571174 -87.46416 9.969466 20.2871 0 0 -16.50701 14.36462 15.49684 -8.479325
660.9065 103.0914 2715.358 1.306471 -1.997088 24.67662 2.4274 -26.83119 3.213074 -0 22.88872 -0 -3.756345 -6.416606 -5.049517 -5.542538 14.15436 -14.36743 -0 9.137045 -0 1.611648 -20.92924 17.87987 0.3617789 -1.093906 4.936655 2.269037 14.2661 -8.994326 1.053869 21.59887 4.402958 0.8668054 -22.09275 6.627032 -2.831458 -22.59438 13.97691 94.44763 22.40988 -19.99134 -0 0 13.70748 -19.59863 10.74612 6.258512 4.355833 -23.85613 -4.405055 -86.86138 9.489175 18.94065 0 0 -17.97545 15.0515 15.36984 -9.821024
662.8816 102.1679 2719.388 0.8907247 -1.405686 24.94136 2.950244 -29.25213 1.981857 -0 16.85453 -0 -4.547013 -3.65419 -3.983316 -5.669341 14.99481 -13.28178 -0 10.4811 -0 1.986459 -21.49097 17.31995 0.37631 -1.049304 4.781905 2.468072 14.01895 -9.233247 0.9939854 21.60139 4.58417 0.9030333 -22.27795 6.755874 -2.993601 -22.18554 14.02949 94.86199 22.50856 -20.79245 -0 0 12.96799 -19.24524 10.37864 5.593678 4.571806 -24.029 -4.288907 -86.40263 9.114262 17.87198 0 0 -19.23453 15.56597 15.26128 -10.85018
665.0498 101.1701 2723.965 0.9524328 -1.443366 25.28764 2.899493 -29.93332 0.326439 -0 12.57038 -0 -5.218303 -0.831193 -3.441267 -5.748032 15.88588 -11.70345 -0 12.37498 -0 1.17426 -21.76155 16.11703 0.4096768 -1.050798 4.666157 2.599398 13.85863 -9.389095 0.9545045 21.62341 4.706232 0.932569 -22.39258 6.833688 -3.160954 -21.90143 14.0575 95.20067 22.43633 -21.39673 -0 0 12.3803 -19.06961 10.13111 5.159858 4.726743 -24.2 -4.274413 -86.09069 8.868909 17.10123 0 0 -20.24052 15.91544 15.23351 -11.53991
667.4009 100.2073 2729.102 1.261578 -1.845022 25.73467 2.682261 -29.34663 -0.9396011 -0 10.07724 -0 -5.489146 0.8539473 -3.674588 -5.66372 16.78847 -10.16479 -0 15.04143 -0 -0.4663159 -21.50964 14.50861 0.4554866 -1.089108 4.58992 2.661248 13.79465 -9.465535 0.9351025 21.66786 4.771022 0.9596607 -22.43501 6.859757 -3.310167 -21.73061 14.06565 95.45619 22.23093 -21.80655 -0 0 11.93441 -19.06286 10.00459 4.953544 4.814479 -24.36897 -4.356331 -85.91658 8.764491 16.62518 0 0 -20.95043 16.10805 15.28908 -11.8854
669.9013 99.42024 2734.719 1.53954 -2.338998 26.22794 2.721497 -27.99223 -1.48591 -0 8.984467 -0 -5.609261 1.445242 -4.270062 -5.398553 17.34314 -8.957479 -0 18.77786 -0 -2.137959 -20.46644 12.94861 0.5079327 -1.152784 4.548295 2.662248 13.81874 -9.474906 0.9339829 21.73136 4.786834 0.9858477 -22.41546 6.843094 -3.428721 -21.65434 14.05896 95.63341 21.9355 -22.0446 -0 0 11.61582 -19.19016 9.983153 4.940549 4.84031 -24.53111 -4.515302 -85.86087 8.788509 16.4089 0 0 -21.36784 16.16888 15.41499 -11.93023
672.5054 98.94249 2740.686 1.645376 -2.817589 26.66386 3.192078 -26.07075 -1.424616 -0 8.850603 -0 -5.978934 1.407089 -4.716465 -4.982348 17.16336 -8.154918 -0 23.77482 -0 -3.215141 -18.55187 11.83225 0.5681674 -1.23656 4.541229 2.6092 13.92941 -9.42725 0.9526491 21.81164 4.750843 1.004666 -22.33815 6.789359 -3.518885 -21.67171 14.04297 95.74137 21.56442 -22.12432 -0 0 11.4358 -19.424 10.05833 5.085943 4.804184 -24.67985 -4.739707 -85.91763 8.921364 16.44445 0 0 -21.47986 16.12164 15.61076 -11.72373
675.1551 98.87933 2746.841 1.567764 -3.305809 26.92035 4.075922 -23.51787 -0.9936821 -0 9.360272 -0 -6.850969 1.082943 -4.725699 -4.44884 15.86678 -7.721992 -0 30.06714 -0 -3.445718 -15.8706 11.38936 0.6419692 -1.339325 4.579318 2.502121 14.14091 -9.324877 0.9972795 21.9047 4.643859 1.0008 -22.19706 6.697063 -3.585175 -21.81171 14.02417 95.77527 21.11612 -22.02237 -0 0 11.46003 -19.74892 10.24294 5.372329 4.692933 -24.79795 -5.023945 -86.10761 9.145831 16.78731 0 0 -21.20419 15.97347 15.88747 -11.29074
677.7834 99.2812 2752.998 1.415167 -3.902262 26.89472 5.18844 -20.1485 -0.4349165 -0 10.24204 -0 -8.198841 0.5943318 -4.290622 -3.843675 13.11213 -7.525578 -0 37.33974 -0 -2.967876 -12.73157 11.66452 0.7361648 -1.461473 4.682004 2.338576 14.47505 -9.165096 1.076121 21.99606 4.43601 0.9519781 -21.98339 6.560424 -3.62718 -22.13045 14.00972 95.71003 20.59231 -21.67841 -0 0 11.81107 -20.152 10.57159 5.800434 4.486118 -24.85373 -5.35823 -86.47265 9.440079 17.54732 0 0 -20.40654 15.71048 16.25041 -10.63161
680.3322 100.1034 2758.977 1.415755 -4.704237 26.55909 6.176029 -15.84588 0.06261786 -0 11.13079 -0 -9.613365 -0.1736928 -3.697624 -3.237354 8.830792 -7.336947 -0 44.62928 -0 -2.273281 -9.708697 12.49779 0.8550663 -1.607333 4.870555 2.121826 14.94131 -8.946238 1.193715 22.05114 4.098565 0.8328238 -21.69769 6.373667 -3.639625 -22.69869 14.00339 95.50371 20.00734 -21.01524 -0 0 12.64389 -20.61555 11.0934 6.387335 4.171387 -24.80788 -5.719712 -87.05444 9.766752 18.84455 0 0 -18.98339 15.2967 16.67725 -9.730081
682.769 101.1897 2764.668 1.779206 -5.658514 25.99421 6.675107 -10.80506 0.4914747 -0 11.61283 -0 -10.43891 -1.539474 -3.362544 -2.690818 3.486672 -6.992289 -0 50.33318 -0 -1.91476 -7.48616 13.59023 0.9971768 -1.790614 5.154975 1.869042 15.5101 -8.675604 1.343233 22.01526 3.62182 0.6225539 -21.36173 6.136535 -3.618333 -23.57204 13.99827 95.1155 19.3849 -19.98413 -0 0 14.07926 -21.11495 11.84944 7.159065 3.764261 -24.63367 -6.070447 -87.85725 10.0711 20.72711 0 0 -16.99019 14.68499 17.1049 -8.569363
685.0952 102.304 2770.067 2.449754 -6.502915 25.32538 6.611618 -5.560086 1.033884 -0 11.51941 -0 -10.29446 -3.721774 -3.426179 -2.178188 -2.109735 -6.560131 -0 52.84581 -0 -2.038098 -6.372666 14.72723 1.153208 -2.030153 5.520204 1.611539 16.10165 -8.373791 1.502833 21.83582 3.032754 0.3175722 -21.01962 5.860201 -3.564579 -24.74686 13.97408 94.53364 18.75324 -18.61389 -0 0 16.11257 -21.62147 12.83467 8.130992 3.314986 -24.33629 -6.365555 -88.81858 10.3006 23.094 0 0 -14.7029 13.84703 17.44211 -7.156652
687.3588 103.1707 2775.263 3.132956 -7.062396 24.61679 6.225489 -0.5715881 1.743003 -0 11.0849 -0 -9.336321 -6.357997 -3.643907 -1.522731 -7.386391 -6.087163 -0 51.29163 -0 -2.405684 -6.052979 15.9053 1.303365 -2.329651 5.928321 1.379329 16.60863 -8.06314 1.642687 21.49426 2.395411 -0.05955606 -20.72112 5.568454 -3.478565 -26.14301 13.90416 93.77656 18.15972 -16.99244 -0 0 18.59554 -22.10926 13.9741 9.296295 2.88783 -23.93908 -6.5593 -89.8318 10.43839 25.72341 0 0 -12.48182 12.79403 17.60024 -5.526846
689.661 103.5445 2780.379 3.588196 -7.463679 23.88593 5.769887 4.050131 2.359653 -0 10.70022 -0 -7.936409 -8.664039 -3.752468 -0.4987899 -12.13709 -5.340915 -0 45.7837 -0 -2.829758 -6.002231 17.09205 1.41583 -2.666246 6.337875 1.182348 16.92576 -7.746658 1.737541 21.01852 1.791275 -0.4646771 -20.50157 5.292376 -3.357442 -27.63352 13.761 92.86164 17.68288 -15.18935 -0 0 21.31451 -22.56384 15.13333 10.63636 2.535275 -23.44906 -6.601778 -90.80367 10.51825 28.38442 0 0 -10.57587 11.56824 17.51636 -3.723157
692.1095 103.3471 2785.515 3.698303 -7.828536 23.15265 5.393463 8.263563 2.606007 -0 10.694 -0 -6.546263 -10.22492 -3.640837 0.8597078 -16.13957 -4.239881 -0 37.48566 -0 -3.148023 -5.902817 18.06618 1.457482 -3.002739 6.71948 1.010487 16.97198 -7.409066 1.775479 20.47566 1.295987 -0.8445533 -20.37211 5.062418 -3.210372 -29.07297 13.52209 91.8011 17.40562 -13.24744 -0 0 24.04357 -22.98333 16.14953 12.10836 2.29002 -22.8587 -6.450266 -91.67665 10.60197 30.88409 0 0 -9.08658 10.24672 17.1723 -1.817929
694.7474 102.7372 2790.704 3.446675 -8.061343 22.42701 5.164175 11.85077 2.473696 -0 11.31434 -0 -5.680207 -11.2627 -3.30373 2.070775 -18.95804 -3.288708 -0 28.46976 -0 -3.05978 -5.693497 18.64614 1.413071 -3.301358 7.057947 0.8493817 16.72841 -7.043531 1.76163 19.95685 0.9611955 -1.147405 -20.31753 4.900103 -3.063559 -30.30526 13.19001 90.63993 17.37284 -11.26118 -0 0 26.53393 -23.36866 16.87727 13.60214 2.163168 -22.18712 -6.104911 -92.41062 10.74083 33.03772 0 0 -8.028513 8.960654 16.61567 0.03927672
